<?xml version="1.0" encoding="utf-8"?>
<!-- Generator: Adobe Illustrator 22.1.0, SVG Export Plug-In . SVG Version: 6.00 Build 0)  -->
<svg version="1.1" id="Layer_1" xmlns="http://www.w3.org/2000/svg" xmlns:xlink="http://www.w3.org/1999/xlink" width="100px"
	 viewBox="0 0 100 100" enable-background="new 0 0 100 100" xml:space="preserve">
<g>
	<g>
		<path fill="#FFFFFF" d="M66.1,45.2L39,29.5c-0.9-0.5-1.8-0.7-2.8-0.7c-1.2,0-2.2,0.4-2.8,0.8c-1.7,1-2.8,2.8-2.8,4.8v31.3
			c0,2,1,3.8,2.8,4.8c0.6,0.3,1.6,0.7,2.8,0.7c1,0,1.9-0.3,2.8-0.8l27.1-15.7c1.7-1,2.8-2.8,2.8-4.8C68.9,48,67.9,46.2,66.1,45.2z
			 M62.6,50L36.6,65V35L62.6,50z"/>
		<g>
			<path fill="none" d="M82.4,38.8l-52-30c-2-1.1-4.2-1.8-6.5-1.8s-4.5,0.6-6.5,1.8c-4,2.3-6.5,6.5-6.5,11.2v60
				c0,4.7,2.4,8.8,6.5,11.2c2,1.1,4.2,1.8,6.5,1.8s4.5-0.6,6.5-1.8l52-30c4-2.3,6.5-6.5,6.5-11.2C88.9,45.3,86.5,41.2,82.4,38.8z"/>
			<path fill="#FFFFFF" d="M85.5,33.6l-52-30C30.6,1.9,27.3,1,24.1,1c-3.3,0-6.6,0.9-9.5,2.6C8.6,7,5.1,13.1,5.1,20v60
				c0,6.9,3.6,13,9.5,16.4c2.9,1.7,6.2,2.6,9.5,2.6c3.3,0,6.6-0.9,9.5-2.6l52-30c5.9-3.4,9.5-9.6,9.5-16.4
				C94.9,43.1,91.4,37,85.5,33.6z M82.4,61.1l-52,30c-2,1.1-4.2,1.8-6.5,1.8s-4.5-0.6-6.5-1.8c-4-2.3-6.5-6.5-6.5-11.2V20
				c0-4.7,2.4-8.8,6.5-11.2c2-1.1,4.2-1.8,6.5-1.8s4.5,0.6,6.5,1.8l52,30c4,2.3,6.5,6.5,6.5,11.2C88.9,54.7,86.5,58.8,82.4,61.1z"/>
		</g>
		<path fill="#FFFFFF" d="M81.7,48.1v-0.1c-0.5-2.8-2.2-5.3-4.7-7.1l-2.1-1.4l-1.8,2.6l-1,2.1l1.7,1.2c1.5,1,2.4,2.7,2.4,4.5v0.1
			c0,1.6-0.6,3-1.7,4.1l-1.8,1.7l3.8,4l1.8-1.7c2.1-2,3.3-4.8,3.4-7.7v-0.8L81.7,48.1z"/>
	</g>
</g>
</svg>
