<?xml version="1.0" encoding="utf-8"?>
<!-- Generator: Adobe Illustrator 22.1.0, SVG Export Plug-In . SVG Version: 6.00 Build 0)  -->
<svg version="1.1" id="Layer_1" xmlns="http://www.w3.org/2000/svg" xmlns:xlink="http://www.w3.org/1999/xlink" width="100px"
	 viewBox="0 0 100 100" enable-background="new 0 0 100 100" xml:space="preserve">
<g>
	
		<linearGradient id="SVGID_1_" gradientUnits="userSpaceOnUse" x1="2.111118e-02" y1="51.9948" x2="99.9997" y2="51.9948" gradientTransform="matrix(1 0 0 -1 0 102)">
		<stop  offset="0" style="stop-color:#685FF6"/>
		<stop  offset="0.9258" style="stop-color:#25CEE5"/>
	</linearGradient>
	<path fill="url(#SVGID_1_)" d="M90.4,100H9.6C4.3,100,0,95.7,0,90.4V9.6C0,4.3,4.3,0,9.6,0h80.8c5.3,0,9.6,4.3,9.6,9.6v80.8
		C100,95.7,95.7,100,90.4,100z"/>
	<path fill="#FFFFFF" d="M65.8,45.8L42.2,32.2c-0.8-0.4-1.6-0.6-2.4-0.6c-1.1,0-1.9,0.4-2.4,0.7c-1.5,0.9-2.4,2.4-2.4,4.2v27.3
		c0,1.8,0.9,3.3,2.4,4.2c0.5,0.3,1.4,0.6,2.4,0.6c0.8,0,1.7-0.2,2.4-0.7l23.6-13.6c1.5-0.9,2.4-2.4,2.4-4.2S67.3,46.7,65.8,45.8z
		 M62.7,50L40.1,63V37L62.7,50z"/>
	<g>
		<path fill="none" d="M80,40.3L34.8,14.2c-1.7-1-3.7-1.5-5.6-1.5s-3.9,0.5-5.6,1.5c-3.5,2-5.6,5.7-5.6,9.7v52.2
			c0,4.1,2.1,7.7,5.6,9.7c1.7,1,3.7,1.5,5.6,1.5s3.9-0.5,5.6-1.5L80,59.8c3.5-2,5.6-5.7,5.6-9.7C85.6,45.9,83.5,42.3,80,40.3z"/>
		<path fill="#FFFFFF" d="M82.6,35.7L37.4,9.6c-2.5-1.5-5.4-2.2-8.2-2.2c-2.9,0-5.7,0.8-8.2,2.2c-5.2,3-8.3,8.3-8.3,14.3v52.2
			c0,6,3.1,11.3,8.2,14.3c2.5,1.5,5.4,2.2,8.2,2.2c2.9,0,5.7-0.8,8.2-2.2l45.2-26.1c5.2-3,8.2-8.3,8.2-14.3
			C90.9,44.1,87.8,38.7,82.6,35.7z M80,59.7L34.8,85.8c-1.7,1-3.7,1.5-5.6,1.5s-3.9-0.5-5.6-1.5c-3.5-2-5.6-5.7-5.6-9.7V23.9
			c0-4.1,2.1-7.7,5.6-9.7c1.7-1,3.7-1.5,5.6-1.5s3.9,0.5,5.6,1.5L80,40.3c3.5,2,5.6,5.7,5.6,9.7C85.6,54.1,83.5,57.7,80,59.7z"/>
	</g>
	<path fill="#FFFFFF" d="M79.3,48.3L79.3,48.3c-0.4-2.6-1.9-4.7-4.1-6.3l-1.8-1.2l-1.6,2.3L71,44.9l1.5,1c1.3,0.9,2.1,2.3,2.1,3.9
		V50c0,1.4-0.5,2.6-1.5,3.5L71.6,55l3.3,3.5l1.5-1.5c1.9-1.8,2.9-4.1,3-6.7v-0.7L79.3,48.3z"/>
</g>
</svg>
