<?xml version="1.0" encoding="utf-8"?>
<!-- Generator: Adobe Illustrator 22.1.0, SVG Export Plug-In . SVG Version: 6.00 Build 0)  -->
<svg version="1.1" id="Layer_1" xmlns="http://www.w3.org/2000/svg" xmlns:xlink="http://www.w3.org/1999/xlink" width="150"
	 viewBox="0 0 100 20" enable-background="new 0 0 100 20" xml:space="preserve">
<title>playme-logo</title>
<g>
	
		<linearGradient id="SVGID_1_" gradientUnits="userSpaceOnUse" x1="0" y1="10.9378" x2="19.8693" y2="10.9378" gradientTransform="matrix(1 0 0 -1 0 21)">
		<stop  offset="0" style="stop-color:#685FF6"/>
		<stop  offset="0.9258" style="stop-color:#25CEE5"/>
	</linearGradient>
	<path fill="url(#SVGID_1_)" d="M18,20H1.9C0.9,20,0,19.1,0,18.1V2C0,1,0.9,0.1,1.9,0.1H18C19,0.1,19.9,1,19.9,2v16.1
		C19.9,19.1,19,20,18,20z"/>
	<path fill="#FFFFFF" d="M13.1,9.2L8.4,6.5C8.2,6.4,8.1,6.4,7.9,6.4c-0.2,0-0.4,0.1-0.5,0.1C7.1,6.7,6.9,7,6.9,7.4v5.4
		c0,0.3,0.2,0.7,0.5,0.8c0.1,0.1,0.3,0.1,0.5,0.1c0.2,0,0.3,0,0.5-0.1l4.7-2.7c0.3-0.2,0.5-0.5,0.5-0.8C13.6,9.7,13.4,9.4,13.1,9.2z
		 M12.5,10.1L8,12.7V7.5L12.5,10.1z"/>
	<g>
		<path fill="none" d="M15.9,8.1l-9-5.2C6.6,2.7,6.2,2.6,5.8,2.6C5.4,2.6,5,2.7,4.7,2.9C4,3.3,3.6,4.1,3.6,4.9v10.4
			c0,0.8,0.4,1.5,1.1,1.9c0.3,0.2,0.7,0.3,1.1,0.3c0.4,0,0.8-0.1,1.1-0.3l9-5.2c0.7-0.4,1.1-1.1,1.1-1.9C17,9.3,16.6,8.5,15.9,8.1z"
			/>
		<path fill="#FFFFFF" d="M16.4,7.2L7.4,2C6.9,1.7,6.4,1.6,5.8,1.6C5.2,1.6,4.7,1.7,4.2,2c-1,0.6-1.6,1.7-1.6,2.8v10.4
			c0,1.2,0.6,2.2,1.6,2.8c0.5,0.3,1.1,0.4,1.6,0.4c0.6,0,1.1-0.2,1.6-0.4l9-5.2c1-0.6,1.6-1.7,1.6-2.8C18.1,8.9,17.4,7.8,16.4,7.2z
			 M15.9,12l-9,5.2c-0.3,0.2-0.7,0.3-1.1,0.3c-0.4,0-0.8-0.1-1.1-0.3c-0.7-0.4-1.1-1.1-1.1-1.9V4.9c0-0.8,0.4-1.5,1.1-1.9
			C5,2.7,5.4,2.6,5.8,2.6c0.4,0,0.8,0.1,1.1,0.3l9,5.2c0.7,0.4,1.1,1.1,1.1,1.9C17,10.9,16.6,11.6,15.9,12z"/>
	</g>
	<path fill="#FFFFFF" d="M15.8,9.7L15.8,9.7c-0.1-0.5-0.4-0.9-0.8-1.2l-0.4-0.2l-0.3,0.5l-0.2,0.4l0.3,0.2c0.3,0.2,0.4,0.5,0.4,0.8
		v0c0,0.3-0.1,0.5-0.3,0.7L14.2,11l0.7,0.7l0.3-0.3c0.4-0.3,0.6-0.8,0.6-1.3V10L15.8,9.7z"/>
</g>
<g>
	<path d="M28.8,19.7V4.6h1v2.5c0.8-1.6,2.5-2.7,4.6-2.7c2.9,0.1,5.2,2.1,5.2,5.5c0,3.6-2.4,5.5-5.4,5.5c-1.8,0-3.5-0.9-4.4-2.7v6.9
		H28.8z M38.6,9.9c0-3-1.9-4.5-4.4-4.5c-2.5,0-4.3,1.9-4.3,4.5s1.9,4.5,4.3,4.5C36.6,14.5,38.6,12.9,38.6,9.9z"/>
	<path d="M43.3,0.2v15.1h-1.1V0.2L43.3,0.2L43.3,0.2z"/>
	<path d="M56.5,4.6c0,3.6,0,7.1,0,10.7h-1.1V13c-1,1.7-2.6,2.4-4.4,2.4c-3,0-5.4-2.2-5.4-5.5c0-3.3,2.4-5.5,5.4-5.5
		c1.7,0,3.5,0.8,4.4,2.5V4.6L56.5,4.6L56.5,4.6z M46.7,9.9c0,2.7,1.9,4.5,4.4,4.5c5.9,0,5.9-8.9,0-8.9C48.6,5.5,46.7,7.3,46.7,9.9z"
		/>
	<path d="M68,4.6l-6.5,15.1h-1.1l2-4.6L58.1,4.6h1.1l2.5,6.3l1.2,3.1l1.2-3.1l2.7-6.3L68,4.6L68,4.6z"/>
	
		<linearGradient id="SVGID_2_" gradientUnits="userSpaceOnUse" x1="68.4839" y1="11.169" x2="100.6686" y2="11.169" gradientTransform="matrix(1 0 0 -1 0 21)">
		<stop  offset="0" style="stop-color:#685FF6"/>
		<stop  offset="0.9258" style="stop-color:#25CEE5"/>
	</linearGradient>
	<path fill="url(#SVGID_2_)" d="M85.8,15.3V8.9c0-2.1-1.4-3.5-3.4-3.5c-2,0-3.4,1.5-3.4,3.6v6.3h-1.1V9c0-2.1-1.4-3.5-3.4-3.5
		S71.1,6.9,71.1,9v6.3h-1.1V4.6h1l0,1.8c0.7-1.4,2.1-2,3.5-2c1.6,0,3.3,0.7,4,2.6c0.6-1.8,2.3-2.6,4-2.6c2.6,0,4.5,1.8,4.5,4.5v6.4
		L85.8,15.3L85.8,15.3z"/>
	
		<linearGradient id="SVGID_3_" gradientUnits="userSpaceOnUse" x1="68.4839" y1="11.0665" x2="100.6583" y2="11.0665" gradientTransform="matrix(1 0 0 -1 0 21)">
		<stop  offset="0" style="stop-color:#685FF6"/>
		<stop  offset="0.9258" style="stop-color:#25CEE5"/>
	</linearGradient>
	<path fill="url(#SVGID_3_)" d="M89.3,9.9c0-3.2,2.4-5.5,5.4-5.5c3,0,5.7,1.8,5.3,6h-9.6c0.2,2.5,2.1,4,4.3,4c1.4,0,3-0.6,3.8-1.6
		l0.8,0.6c-1,1.4-2.9,2.1-4.6,2.1C91.7,15.4,89.3,13.3,89.3,9.9z M99,9.5c0-2.6-1.8-4.1-4.3-4.1c-2.2,0-4.1,1.5-4.3,4.1H99z"/>
</g>
</svg>
