<?xml version="1.0" encoding="utf-8"?>
<!-- Generator: Adobe Illustrator 22.1.0, SVG Export Plug-In . SVG Version: 6.00 Build 0)  -->
<svg version="1.1" id="Layer_1" xmlns="http://www.w3.org/2000/svg" xmlns:xlink="http://www.w3.org/1999/xlink" x="0px" y="0px"
	 viewBox="0 0 200 147.3" style="enable-background:new 0 0 200 147.3;" xml:space="preserve">
<style type="text/css">
	.st0{fill:url(#SVGID_1_);}
	.st1{fill:#FFFFFF;}
	.st2{fill:none;}
	.st3{fill:url(#SVGID_2_);}
	.st4{fill:url(#SVGID_3_);}
</style>
<g>
	
		<linearGradient id="SVGID_1_" gradientUnits="userSpaceOnUse" x1="59.0182" y1="110.7438" x2="141.0045" y2="110.7438" gradientTransform="matrix(1 0 0 -1 0 151.75)">
		<stop  offset="0" style="stop-color:#685FF6"/>
		<stop  offset="0.9258" style="stop-color:#25CEE5"/>
	</linearGradient>
	<path class="st0" d="M133.2,82H66.9c-4.3,0-7.9-3.5-7.9-7.9V7.9C59,3.5,62.5,0,66.9,0h66.3c4.3,0,7.9,3.5,7.9,7.9v66.3
		C141,78.5,137.5,82,133.2,82z"/>
	<path class="st1" d="M112.9,37.6L93.6,26.4c-0.6-0.4-1.3-0.5-2-0.5c-0.9,0-1.6,0.3-2,0.5c-1.2,0.7-2,2-2,3.4v22.4
		c0,1.4,0.7,2.7,2,3.4c0.4,0.2,1.1,0.5,2,0.5c0.7,0,1.4-0.2,2-0.5l19.4-11.2c1.2-0.7,2-2,2-3.4S114.2,38.3,112.9,37.6z M110.4,41
		L91.9,51.7V30.3L110.4,41z"/>
	<g>
		<path class="st2" d="M124.6,33L87.5,11.6c-1.4-0.8-3-1.3-4.6-1.3s-3.2,0.4-4.6,1.3c-2.9,1.7-4.6,4.6-4.6,8v42.8
			c0,3.3,1.7,6.3,4.6,8c1.4,0.8,3,1.3,4.6,1.3s3.2-0.4,4.6-1.3L124.6,49c2.9-1.7,4.6-4.6,4.6-8C129.2,37.7,127.5,34.7,124.6,33z"/>
		<path class="st1" d="M126.8,29.3L89.7,7.9C87.6,6.7,85.2,6,82.9,6c-2.4,0-4.7,0.6-6.8,1.8c-4.3,2.4-6.8,6.8-6.8,11.7v42.8
			c0,4.9,2.5,9.3,6.8,11.7c2.1,1.2,4.4,1.8,6.8,1.8c2.4,0,4.7-0.6,6.8-1.8l37.1-21.4c4.2-2.4,6.8-6.8,6.8-11.7
			C133.5,36.1,131,31.7,126.8,29.3z M124.6,49L87.5,70.4c-1.4,0.8-3,1.3-4.6,1.3s-3.2-0.4-4.6-1.3c-2.9-1.7-4.6-4.6-4.6-8V19.6
			c0-3.3,1.7-6.3,4.6-8c1.4-0.8,3-1.3,4.6-1.3s3.2,0.4,4.6,1.3L124.6,33c2.9,1.7,4.6,4.6,4.6,8C129.2,44.3,127.5,47.3,124.6,49z"/>
	</g>
	<path class="st1" d="M124,39.6L124,39.6c-0.4-2.1-1.5-3.9-3.3-5.1l-1.5-1l-1.3,1.9l-0.7,1.5l1.2,0.8c1.1,0.7,1.7,1.9,1.7,3.2V41
		c0,1.1-0.4,2.1-1.2,2.9l-1.3,1.2l2.7,2.9l1.3-1.2c1.5-1.4,2.4-3.4,2.5-5.5v-0.5L124,39.6z"/>
</g>
<g>
	<path d="M0,147.3v-42.4h2.9v7.1c2.4-4.6,7.1-7.5,13-7.5c8.1,0.3,14.6,5.8,14.6,15.4c0,10.1-6.8,15.5-15.2,15.5
		c-5.1,0-9.8-2.5-12.4-7.5v19.4H0z M27.5,119.9c0-8.4-5.4-12.5-12.3-12.5c-7,0-12.1,5.3-12.1,12.6s5.3,12.6,12.1,12.6
		C22,132.5,27.5,128.3,27.5,119.9z"/>
	<path d="M40.7,92.4v42.4h-3V92.4L40.7,92.4L40.7,92.4z"/>
	<path d="M77.8,104.9c0,10,0,19.9,0,29.9h-3v-6.4c-2.9,4.7-7.4,6.9-12.3,6.9c-8.4,0-15.2-6.3-15.2-15.4c0-9.2,6.9-15.3,15.2-15.3
		c4.8,0,9.8,2.3,12.3,6.9v-6.5L77.8,104.9L77.8,104.9z M50.3,119.9c0,7.5,5.4,12.5,12.3,12.5c16.7,0,16.7-25,0-25
		C55.8,107.4,50.3,112.4,50.3,119.9z"/>
	<path d="M110.1,104.9l-18.2,42.4h-3.1l5.5-12.8l-12-29.6h3.2l7,17.7l3.5,8.7l3.5-8.7l7.5-17.6L110.1,104.9L110.1,104.9z"/>
	
		<linearGradient id="SVGID_2_" gradientUnits="userSpaceOnUse" x1="111.4942" y1="32.1867" x2="201.8712" y2="32.1867" gradientTransform="matrix(1 0 0 -1 0 151.75)">
		<stop  offset="0" style="stop-color:#685FF6"/>
		<stop  offset="0.9258" style="stop-color:#25CEE5"/>
	</linearGradient>
	<path class="st3" d="M160.2,134.8v-17.9c0-5.8-3.9-9.8-9.6-9.8s-9.6,4.2-9.6,10v17.7h-3v-17.7c0-5.8-3.9-9.9-9.6-9.9
		c-5.7,0-9.6,4.2-9.6,9.9v17.7h-3v-29.9h2.8l0.1,5c2.1-3.9,5.9-5.6,9.8-5.6c4.6,0,9.3,2.1,11.1,7.4c1.8-4.9,6.5-7.4,11.1-7.4
		c7.3,0,12.5,5.2,12.5,12.6v17.9L160.2,134.8L160.2,134.8z"/>
	
		<linearGradient id="SVGID_3_" gradientUnits="userSpaceOnUse" x1="111.4942" y1="31.8987" x2="201.8422" y2="31.8987" gradientTransform="matrix(1 0 0 -1 0 151.75)">
		<stop  offset="0" style="stop-color:#685FF6"/>
		<stop  offset="0.9258" style="stop-color:#25CEE5"/>
	</linearGradient>
	<path class="st4" d="M169.9,119.9c0-9,6.8-15.4,15.2-15.4c8.4,0,15.9,5.2,14.8,16.9h-27c0.6,7,6,11.1,12.2,11.1
		c3.9,0,8.5-1.6,10.8-4.6l2.1,1.7c-2.9,3.8-8.1,5.8-12.9,5.8C176.7,135.3,169.9,129.4,169.9,119.9z M197.2,118.7
		c-0.1-7.4-4.9-11.5-12.1-11.5c-6.2,0-11.5,4.2-12.2,11.5H197.2z"/>
</g>
</svg>
